<svg width="48" height="43" viewBox="0 0 48 43" fill="none" xmlns="http://www.w3.org/2000/svg">
<path d="M45.6335 8.71758L40.8585 1.1002C40.4335 0.419922 39.6751 0 38.8668 0H9.13347C8.32514 0 7.56681 0.419922 7.14181 1.1002L2.35847 8.71758C-0.108192 12.648 2.07514 18.1154 6.68347 18.7453C7.01681 18.7873 7.35847 18.8125 7.69181 18.8125C9.86681 18.8125 11.8001 17.8551 13.1251 16.377C14.4501 17.8551 16.3835 18.8125 18.5585 18.8125C20.7335 18.8125 22.6668 17.8551 23.9918 16.377C25.3168 17.8551 27.2501 18.8125 29.4251 18.8125C31.6085 18.8125 33.5335 17.8551 34.8585 16.377C36.1918 17.8551 38.1168 18.8125 40.2918 18.8125C40.6335 18.8125 40.9668 18.7873 41.3001 18.7453C45.9251 18.1238 48.1168 12.6564 45.6418 8.71758H45.6335ZM41.6418 21.4076H41.6335C41.1918 21.4664 40.7418 21.5 40.2835 21.5C39.2501 21.5 38.2585 21.3404 37.3335 21.0549V32.25H10.6668V21.0465C9.73347 21.3404 8.73347 21.5 7.70014 21.5C7.24181 21.5 6.78347 21.4664 6.34181 21.4076H6.33348C5.99181 21.3572 5.65847 21.2984 5.33348 21.2145V32.25V37.625C5.33348 40.5896 7.72514 43 10.6668 43H37.3335C40.2751 43 42.6668 40.5896 42.6668 37.625V32.25V21.2145C42.3335 21.2984 42.0001 21.3656 41.6418 21.4076Z" fill="#919191"/>
</svg>
